<?xml version="1.0" encoding="UTF-8" standalone="no"?><!DOCTYPE svg PUBLIC "-//W3C//DTD SVG 1.1//EN" "http://www.w3.org/Graphics/SVG/1.1/DTD/svg11.dtd"><svg width="100%" height="100%" viewBox="0 0 2453 771" version="1.1" xmlns="http://www.w3.org/2000/svg" xmlns:xlink="http://www.w3.org/1999/xlink" xml:space="preserve" xmlns:serif="http://www.serif.com/" style="fill-rule:evenodd;clip-rule:evenodd;stroke-linecap:round;stroke-linejoin:round;stroke-miterlimit:1.5;"><g><g><path id="path59" d="M479.291,449.879l-23.971,-24.632c0,0 6.314,-22.723 7.995,-29.061c1.381,-5.204 2.19,-10.061 8.094,-8.204c6.536,2.055 9.048,2.121 15.749,0.191c5.708,-1.644 6.582,3.094 7.746,7.136c1.818,6.311 8.224,29.996 8.224,29.996l-23.838,24.574Z" style="fill:#036;fill-rule:nonzero;"/><path id="path58" d="M437.789,491.307l11.486,-42.804l15.581,15.581l-27.067,27.223Z" style="fill:#036;fill-rule:nonzero;"/><path id="path57" d="M493.566,463.586l15.599,-15.082l11.499,42.804l-27.098,-27.721Z" style="fill:#036;fill-rule:nonzero;"/><path id="path56" d="M479.211,581.064l-51.663,-51.592l51.663,-51.033l51.794,51.362l-51.794,51.263Z" style="fill:#036;fill-rule:nonzero;"/><path id="path55" d="M389.478,671.341l32.095,-119.604l43.751,43.751l-75.847,75.853Z" style="fill:#036;fill-rule:nonzero;"/><path id="path54" d="M568.84,670.632l-75.413,-75.413l43.355,-43.483l32.058,118.896Z" style="fill:#036;fill-rule:nonzero;"/><path id="path53" d="M362.876,770.62l16.442,-61.42l99.893,-99.825l100.306,101.004l16.188,60.193l-232.829,0.049Z" style="fill:#036;fill-rule:nonzero;"/><path id="path50" d="M63.976,770.61c-34.424,0 -63.76,-37.902 -63.76,-72.326c0,-63.059 -0.3,-595.756 -0.193,-612.621c0.271,-42.818 35.774,-85.875 74.76,-85.628c13.27,0.084 934.659,-0.035 934.659,-0.035l153.631,154.191c84.497,84.805 155.05,159.903 155.05,159.903c0,0 0.177,341.976 0.721,387.104c-0.788,35.872 -51.123,69.764 -84.839,69.023c-13.27,-0.291 -586.635,0.425 -586.635,0.425c0,0 -102.932,-364.134 -110.399,-390.615c-3.83,-13.583 -4.662,-15.212 0.963,-22.861c4.251,-5.781 8.351,-16.042 9.364,-22.379c1.144,-7.156 2.147,-11.476 5.867,-13.91c3.295,-2.156 32.803,-14.927 65.573,-28.38c32.77,-13.453 63.249,-26.265 67.73,-28.471c4.481,-2.206 9.355,-3.265 10.83,-2.352c1.476,0.912 9.471,10.787 17.766,21.943c8.296,11.157 17.466,23.032 20.379,26.389c2.913,3.358 14.872,18.288 26.576,33.179c11.704,14.891 24.164,28.401 27.69,30.022l6.41,2.947l-1.472,282.405l-134.74,0.181l15.549,53.42c0,0 554.046,-1.175 561.904,-2.389c13.507,-2.087 25.552,-13.289 25.709,-25.229c0.117,-8.87 0.036,-311.334 0.036,-311.334l-53.008,-0.049l-0.044,285.361l-381.359,0.04l-0.734,-149.37l-0.734,-149.37l9.532,-5.624c14.439,-8.519 16.457,-26.942 9.241,-84.34c-5.701,-45.346 -18.719,-89.88 -36.563,-125.077c-18.489,-36.469 -63.852,-94.975 -73.43,-94.705c-2.078,0.059 -17.823,6.284 -34.988,13.835l-31.21,13.728l0.021,25.178c0.013,13.848 1.133,42.095 2.492,62.771c1.769,26.921 1.585,37.594 -0.647,37.594c-1.714,0 -9.858,3.037 -18.097,6.75c-27.802,12.528 -75.651,32.972 -77.169,32.972c-0.829,0 -9.519,3.605 -19.311,8.012c-34.621,15.58 -34.384,14.658 -42.941,10.43c-16.678,-8.239 -46.445,-12.84 -67.196,-0.626c-17.22,10.136 -31.248,28.843 -34.56,40.851l-3.269,11.852l-42.735,17.677c-58.363,24.142 -100.097,41.666 -113.666,47.729c-6.242,2.789 -23.478,9.95 -38.303,15.913c-34.957,14.061 -36.297,15.299 -31.387,29.01c9.512,26.562 17.398,40.459 22.958,40.459c5.331,0 5.591,2.117 5.591,45.396c0,34.338 -3.547,45.561 -3.547,45.561l-46.105,1.254l-0.025,102.141l-51.045,0l0,-547.591l509.288,-1.449l0,-53.962l-270.801,0.751c0,0 -265.392,0.703 -270.801,0.751c-11.613,0.104 -23.255,14.852 -23.119,30.187c0.063,7.019 0.004,594.944 0.004,594.944c0.317,20.698 14.456,33.405 42.098,32.982l179.214,0.131l3.18,-8.512c12.295,-32.913 14.393,-48.89 13.411,-102.141l-0.889,-48.233l-49.652,-1.64l0,-104.19l24.826,-10.55c13.654,-5.802 45.893,-19.379 71.641,-30.17c25.748,-10.791 53.553,-22.769 61.788,-26.618c17.003,-7.947 21.752,-8.699 19.605,-3.104c-1.309,3.41 -80.279,284.443 -81.602,288.344c-1.324,3.901 -28.391,102.141 -28.391,102.141l-246.692,-0.024Zm1177.234,-453.807l-238.433,-241.298c0,0 -0.993,140.415 -1.009,165.98c-0.026,43.195 36.139,75.196 85.545,75.226l153.896,0.092Zm-295.005,-207.25l0.185,-52.095l-136.138,-0.11c12.529,15.734 23.369,32.845 31.451,52.206l104.502,0Z" style="fill:#036;"/><path d="M530.647,529.624l-145.507,145.519" style="fill:none;stroke:#fff;stroke-width:1.46px;"/><path d="M508.923,448.504l-81.375,81.375" style="fill:none;stroke:#fff;stroke-width:1.46px;"/><circle cx="480.014" cy="320.796" r="29.791" style="fill:#036;"/></g></g><g transform="matrix(594.265894,0,0,594.265894,2477.15535,442.700415)"></g><text x="1344.046px" y="442.7px" style="font-family:'RobotoCondensed-ExtraBold', 'Roboto Condensed';font-weight:800;font-stretch:condensed;font-size:594.266px;fill:#036;">OSM</text><g transform="matrix(346.729393,0,0,346.729393,2472.955261,735.357835)"></g><text x="1379.396px" y="735.358px" style="font-family:'RobotoCondensed-Regular', 'Roboto Condensed';font-stretch:condensed;font-size:346.729px;fill:#036;">D<tspan x="1572.51px 1740.059px 1931.818px 2126.963px 2287.062px " y="735.358px 735.358px 735.358px 735.358px 735.358px ">ECALS</tspan></text></svg>