<?xml version="1.0" encoding="UTF-8"?>
<!DOCTYPE svg PUBLIC "-//W3C//DTD SVG 1.1//EN" "http://www.w3.org/Graphics/SVG/1.1/DTD/svg11.dtd">
<!-- Creator: CorelDRAW X7 -->
<svg xmlns="http://www.w3.org/2000/svg" xml:space="preserve" width="20.0775in" height="10.1872in" version="1.1" style="shape-rendering:geometricPrecision; text-rendering:geometricPrecision; image-rendering:optimizeQuality; fill-rule:evenodd; clip-rule:evenodd"
viewBox="0 0 25339 12857"
 xmlns:xlink="http://www.w3.org/1999/xlink">
 <defs>
  <style type="text/css">
   <![CDATA[
    .fil1 {fill:#3E4095}
    .fil0 {fill:black}
    .fil2 {fill:#373435;fill-rule:nonzero}
   ]]>
  </style>
 </defs>
 <g id="Layer_x0020_1">
  <metadata id="CorelCorpID_0Corel-Layer"/>
  <path class="fil0" d="M10291 874c-991,551 -1778,1616 -1866,2741 -223,1806 843,3460 2314,4262 538,375 1218,436 1806,639l0 0 -4698 -31 0 0c-1512,-253 -3075,-1654 -3389,-3186 -376,-1522 121,-2983 1146,-4069 864,-748 1845,-1261 3013,-1229l-97 0 135 27c612,123 1152,438 1636,846z"/>
  <path class="fil1" d="M14070 21c3796,903 5744,4932 6799,8311l0 0 0 91 -2313 0 0 -172 1359 -1238 -487 -71 0 0c71,-254 244,-467 295,-731 -244,0 -560,148 -762,122 -104,-13 -20,-304 -91,-436l0 0 -852 822 0 -193 385 -1461 0 0c-182,30 -385,182 -558,314 -213,-304 -294,-669 -467,-994l0 0 -40 0 -467 923 0 0c-203,-30 -345,-213 -538,-294 31,548 213,1086 315,1634 -315,-193 -609,-538 -853,-802 -152,81 -91,304 -142,457 -253,10 -487,-203 -730,-92l0 0 345 802 0 0c-142,61 -345,-20 -467,71l0 0 1218 1147 0 243 -1289 0 0 0c-639,-1979 -1360,-3894 -2659,-5581 -873,-1134 -1930,-2568 -3416,-2865l-135 -27 5550 20 0 0z"/>
  <path class="fil2" d="M1641 12820c-49,13 -100,22 -154,28 -53,6 -112,9 -177,9 -390,0 -706,-104 -947,-311 -242,-207 -363,-478 -363,-810 0,-334 125,-610 376,-828 250,-218 570,-327 956,-327 46,0 93,3 143,8 49,5 101,13 155,24l34 652c-59,-23 -116,-40 -173,-51 -57,-11 -112,-17 -166,-17 -194,0 -352,49 -475,146 -122,97 -184,221 -184,372 0,149 61,274 182,375 122,101 273,151 455,151 66,0 131,-8 195,-23 65,-14 129,-37 192,-66l-49 668z"/>
  <path id="1" class="fil2" d="M2694 12438c51,0 95,-16 132,-49 36,-33 55,-72 55,-118 0,-45 -19,-84 -55,-118 -37,-34 -81,-51 -132,-51 -49,0 -93,17 -130,50 -36,33 -55,73 -55,119 0,47 18,87 53,119 36,32 80,48 132,48zm202 382l0 -108c-51,45 -109,79 -173,102 -63,22 -133,34 -207,34 -169,0 -306,-51 -411,-151 -105,-100 -158,-230 -158,-391 0,-164 58,-296 174,-396 116,-100 270,-149 461,-149 43,0 87,5 131,16 45,11 89,27 133,48 2,-5 3,-10 3,-17 1,-7 1,-16 1,-28 0,-65 -24,-111 -72,-137 -48,-27 -136,-39 -262,-39 -76,0 -147,2 -211,6 -66,4 -127,10 -184,18l69 -366c88,-10 170,-19 246,-23 77,-5 149,-8 218,-8 283,0 478,40 583,119 104,79 157,229 157,448l0 1022 -498 0z"/>
  <path id="2" class="fil2" d="M3710 12820l0 -1583 576 0 0 152c55,-58 119,-102 192,-132 74,-29 157,-44 249,-44 169,0 298,45 386,137 87,91 131,224 131,401l0 1069 -586 0 0 -840c0,-91 -13,-153 -39,-188 -25,-35 -69,-53 -131,-53 -62,0 -109,21 -142,63 -33,41 -49,101 -49,180l0 838 -587 0z"/>
  <path id="3" class="fil2" d="M6255 12438c51,0 95,-16 132,-49 36,-33 55,-72 55,-118 0,-45 -19,-84 -55,-118 -37,-34 -81,-51 -132,-51 -49,0 -93,17 -130,50 -36,33 -55,73 -55,119 0,47 18,87 54,119 35,32 79,48 131,48zm202 382l0 -108c-51,45 -108,79 -173,102 -63,22 -133,34 -207,34 -168,0 -306,-51 -411,-151 -105,-100 -158,-230 -158,-391 0,-164 58,-296 174,-396 116,-100 270,-149 461,-149 43,0 87,5 132,16 44,11 89,27 133,48 1,-5 2,-10 2,-17 1,-7 1,-16 1,-28 0,-65 -24,-111 -72,-137 -48,-27 -136,-39 -262,-39 -76,0 -147,2 -211,6 -66,4 -127,10 -184,18l69 -366c88,-10 170,-19 247,-23 76,-5 148,-8 217,-8 283,0 478,40 583,119 105,79 157,229 157,448l0 1022 -498 0z"/>
  <path id="4" class="fil2" d="M8115 11748c-89,0 -165,28 -228,82 -63,55 -95,121 -95,199 0,79 32,145 95,200 63,55 139,83 228,83 89,0 165,-27 228,-82 62,-55 93,-121 93,-201 0,-79 -30,-145 -93,-200 -62,-53 -137,-81 -228,-81zm361 928c-69,57 -142,99 -219,125 -77,27 -161,40 -254,40 -226,0 -418,-78 -577,-234 -158,-156 -238,-346 -238,-572 0,-237 83,-433 248,-588 166,-154 373,-231 623,-231 82,0 156,8 222,24 66,17 128,43 184,78l0 -700 587 0 0 2202 -576 0 0 -144z"/>
  <path id="5" class="fil2" d="M9381 12820l0 -1583 586 0 0 1583 -586 0zm0 -1721l0 -481 586 0 0 481 -586 0z"/>
  <path id="6" class="fil2" d="M10992 12438c51,0 95,-16 132,-49 36,-33 55,-72 55,-118 0,-45 -19,-84 -55,-118 -37,-34 -81,-51 -132,-51 -49,0 -93,17 -130,50 -36,33 -55,73 -55,119 0,47 18,87 53,119 36,32 80,48 132,48zm202 382l0 -108c-51,45 -109,79 -173,102 -63,22 -133,34 -207,34 -169,0 -306,-51 -411,-151 -105,-100 -158,-230 -158,-391 0,-164 58,-296 174,-396 116,-100 270,-149 461,-149 43,0 87,5 131,16 45,11 89,27 133,48 2,-5 3,-10 3,-17 1,-7 1,-16 1,-28 0,-65 -24,-111 -72,-137 -48,-27 -136,-39 -262,-39 -76,0 -147,2 -211,6 -66,4 -127,10 -184,18l69 -366c88,-10 170,-19 246,-23 77,-5 149,-8 218,-8 283,0 478,40 583,119 104,79 157,229 157,448l0 1022 -498 0z"/>
  <path id="7" class="fil2" d="M12008 12820l0 -1583 576 0 0 152c55,-58 119,-102 192,-132 74,-29 157,-44 249,-44 170,0 298,45 386,137 87,91 131,224 131,401l0 1069 -586 0 0 -840c0,-91 -13,-153 -38,-188 -26,-35 -70,-53 -132,-53 -62,0 -109,21 -142,63 -33,41 -49,101 -49,180l0 838 -587 0z"/>
  <polygon id="8" class="fil2" points="14893,12820 14893,10618 15174,10618 16097,11582 16097,10618 16739,10618 16739,12820 16447,12820 15535,11865 15535,12820 "/>
  <path id="9" class="fil2" d="M17812 12438c50,0 94,-16 131,-49 36,-33 55,-72 55,-118 0,-45 -19,-84 -55,-118 -37,-34 -81,-51 -131,-51 -50,0 -93,17 -130,50 -37,33 -55,73 -55,119 0,47 18,87 53,119 36,32 80,48 132,48zm201 382l0 -108c-51,45 -108,79 -172,102 -64,22 -133,34 -208,34 -168,0 -305,-51 -411,-151 -105,-100 -157,-230 -157,-391 0,-164 57,-296 174,-396 115,-100 269,-149 460,-149 43,0 87,5 132,16 44,11 89,27 133,48 1,-5 2,-10 3,-17 0,-7 0,-16 0,-28 0,-65 -23,-111 -71,-137 -49,-27 -136,-39 -263,-39 -76,0 -146,2 -211,6 -65,4 -127,10 -184,18l69 -366c88,-10 170,-19 247,-23 76,-5 148,-8 217,-8 284,0 478,40 583,119 105,79 157,229 157,448l0 1022 -498 0z"/>
  <path id="10" class="fil2" d="M19629 12820c-44,6 -86,11 -125,14 -38,3 -77,4 -114,4 -194,0 -328,-36 -401,-107 -73,-72 -109,-222 -109,-450l0 -573 -111 0 0 -471 111 0 0 -169 586 -302 0 471 222 0 0 471 -222 0 0 356c0,87 12,144 35,172 23,28 67,42 131,42 25,0 45,-1 60,-2 16,-1 31,-3 45,-6l-108 550z"/>
  <path id="11" class="fil2" d="M21486 11237l0 1583 -576 0 0 -151c-55,59 -119,103 -193,132 -73,29 -156,43 -247,43 -170,0 -298,-45 -386,-136 -88,-90 -131,-224 -131,-399l0 -1072 586 0 0 840c0,90 13,152 38,188 26,35 68,53 128,53 65,0 114,-20 147,-60 32,-40 48,-101 48,-183l0 -838 586 0z"/>
  <path id="12" class="fil2" d="M21813 12820l0 -1583 586 0 0 164c42,-59 95,-102 158,-131 64,-29 142,-45 234,-48l2 545 -69 0c-105,0 -186,26 -241,76 -56,52 -84,126 -84,221l0 756 -586 0z"/>
  <path id="13" class="fil2" d="M23736 12438c51,0 95,-16 132,-49 36,-33 55,-72 55,-118 0,-45 -19,-84 -55,-118 -37,-34 -81,-51 -132,-51 -49,0 -93,17 -130,50 -36,33 -55,73 -55,119 0,47 18,87 54,119 35,32 79,48 131,48zm202 382l0 -108c-51,45 -109,79 -173,102 -63,22 -133,34 -207,34 -169,0 -306,-51 -411,-151 -105,-100 -158,-230 -158,-391 0,-164 58,-296 174,-396 116,-100 270,-149 461,-149 43,0 87,5 131,16 45,11 90,27 133,48 2,-5 3,-10 3,-17 1,-7 1,-16 1,-28 0,-65 -24,-111 -72,-137 -48,-27 -136,-39 -262,-39 -76,0 -147,2 -211,6 -66,4 -127,10 -184,18l69 -366c88,-10 170,-19 246,-23 77,-5 149,-8 218,-8 283,0 478,40 583,119 104,79 157,229 157,448l0 1022 -498 0z"/>
  <polygon id="14" class="fil2" points="24752,12820 24752,10618 25339,10618 25339,12820 "/>
 </g>
</svg>
