<?xml version="1.0" encoding="UTF-8"?>
<!DOCTYPE svg PUBLIC "-//W3C//DTD SVG 1.1//EN" "http://www.w3.org/Graphics/SVG/1.1/DTD/svg11.dtd">
<!-- Creator: CorelDRAW X7 -->
<svg xmlns="http://www.w3.org/2000/svg" xml:space="preserve" width="5.11038in" height="1.59654in" version="1.1" style="shape-rendering:geometricPrecision; text-rendering:geometricPrecision; image-rendering:optimizeQuality; fill-rule:evenodd; clip-rule:evenodd"
viewBox="0 0 5514 1723"
 xmlns:xlink="http://www.w3.org/1999/xlink">
 <defs>
  <style type="text/css">
   <![CDATA[
    .fil0 {fill:#373435}
    .fil1 {fill:#ED3237}
    .fil2 {fill:#373435;fill-rule:nonzero}
   ]]>
  </style>
 </defs>
 <g id="Layer_x0020_1">
  <metadata id="CorelCorpID_0Corel-Layer"/>
  <path class="fil0" d="M4842 566l-2 -200c134,-4 343,-18 346,95 0,108 -134,114 -344,105zm-241 -287c-37,14 -34,42 -8,51 19,7 47,-3 64,9 6,4 10,12 10,22l0 511c-22,31 -68,12 -82,20 -25,10 -23,52 -2,52l226 0c44,0 30,-13 30,-155 0,-19 -3,-89 0,-121 1,-7 2,-12 3,-15 2,-1 5,-2 9,-2l121 -1c13,0 27,8 40,18 16,12 30,26 41,35l376 310c13,11 23,18 28,19 31,18 54,9 57,-5l-360 -387c50,-4 222,-35 218,-178 -2,-88 -87,-188 -245,-185l-526 2z"/>
  <path class="fil1" d="M1820 1052c-40,1 -60,25 -39,52l423 0c35,5 50,-24 48,-93l-1 -342c0,-77 -2,-81 42,-52l1614 1056c29,19 57,44 94,45 69,0 14,-33 -8,-51l-1490 -1177 473 -359c44,-33 42,-39 101,-39l131 0c73,0 52,-74 36,-81 -14,-5 -118,-3 -140,-3 -60,0 -88,-2 -109,2 -29,5 -45,20 -106,64l-632 401 4 -439c0,-27 -38,-36 -87,-36l-375 1c-37,4 -31,61 -20,61 7,2 18,3 32,3l102 2c36,0 66,2 73,18 5,12 9,28 8,45l-17 837c-2,93 -73,82 -157,85z"/>
  <path class="fil0" d="M224 920c-8,-14 -4,-261 -4,-297 0,-27 -3,-292 4,-297 184,-16 467,60 459,287 -5,154 -186,340 -459,307zm642 -399c-79,-191 -327,-253 -515,-260 -39,-1 -188,-1 -266,0 -47,2 -50,0 -50,58l2 625c0,26 0,44 31,46 36,2 276,1 308,-2 150,3 421,-75 494,-278 23,-61 21,-128 -4,-189zm307 407c159,68 360,78 524,25 37,-12 190,-70 193,-112 2,-21 -19,-27 -35,-21 -26,10 -74,49 -160,74 -195,58 -515,42 -560,-205 -4,-24 3,-32 29,-32l572 -3c25,0 47,2 49,-29 2,-30 -15,-34 -40,-35l-580 -4c-30,-1 -39,-12 -16,-63 43,-97 162,-156 290,-171 130,-14 269,17 352,102 14,13 25,26 35,42 10,14 20,36 39,38 25,2 25,-29 25,-46 1,-93 9,-89 -89,-143 -105,-58 -233,-78 -357,-74 -183,8 -464,90 -506,290 -37,173 83,302 235,367z"/>
  <path class="fil0" d="M3812 923c158,68 360,78 523,25 38,-12 190,-70 194,-112 2,-21 -19,-27 -36,-21 -25,10 -73,49 -159,74 -195,58 -515,42 -560,-205 -5,-24 3,-32 28,-32l573 -3c25,0 47,2 49,-29 2,-30 -15,-34 -40,-35l-580 -4c-31,-1 -40,-12 -17,-63 44,-97 163,-156 291,-171 130,-14 269,17 352,102 14,14 24,26 35,42 10,14 20,36 39,38 25,2 25,-29 25,-45 1,-94 8,-90 -89,-144 -106,-58 -233,-78 -357,-74 -183,8 -464,90 -506,290 -37,173 82,302 235,367z"/>
  <path class="fil0" d="M2444 1057c-39,1 -60,25 -38,52l423 0c35,5 50,-24 47,-94l0 -341c0,-77 -3,-81 41,-52l1614 1056c30,19 58,44 94,45 69,0 15,-33 -8,-51l-1490 -1177 473 -359c45,-33 42,-39 101,-39l131 0c73,0 53,-74 36,-81 -13,-5 -117,-3 -140,-3 -59,0 -88,-2 -109,2 -28,5 -44,20 -106,64l-631 401 3 -439c0,-27 -37,-36 -87,-36l-374 1c-37,4 -31,61 -20,61 7,2 18,3 31,3l103 2c35,0 65,2 72,18 6,12 9,28 9,45l-17 837c-2,93 -73,82 -158,85z"/>
  <path class="fil2" d="M82 1639c-27,0 -47,-7 -61,-21 -14,-14 -21,-34 -21,-60l0 -136c0,-25 7,-44 21,-56 14,-13 34,-19 61,-19 27,0 48,6 62,19 14,12 21,31 21,56l0 136c0,26 -7,46 -21,60 -14,14 -35,21 -62,21zm0 -53c6,0 10,-2 12,-6 3,-5 4,-11 4,-19l0 -140c0,-7 -1,-12 -3,-16 -2,-4 -6,-5 -12,-5 -11,0 -17,7 -17,21l0 140c0,8 1,15 4,19 2,4 6,6 12,6zm106 50l0 -287 65 0 0 287 -65 0zm92 0l0 -287 67 0 0 239 68 0 0 48 -135 0zm154 0l0 -287 134 0 0 56 -67 0 0 46 63 0 0 55 -63 0 0 130 -67 0zm152 0l0 -287 65 0 0 287 -65 0zm91 0l0 -287 134 0 0 56 -66 0 0 56 63 0 0 54 -63 0 0 66 70 0 0 55 -138 0zm161 0l0 -287 66 0 0 239 69 0 0 48 -135 0zm154 -287l92 0c24,0 42,6 54,17 11,12 18,29 18,51l1 134c0,28 -6,50 -18,64 -11,14 -30,21 -57,21l-90 0 0 -287zm79 237c12,0 18,-6 18,-16l0 -148c0,-6 -1,-11 -2,-14 -1,-4 -3,-6 -6,-7 -3,-1 -8,-1 -15,-1l-7 0 0 186 12 0zm283 53c-31,0 -53,-6 -66,-19 -14,-13 -20,-34 -20,-63l0 -28 65 0 0 36c0,14 6,21 16,21 6,0 10,-1 13,-4 2,-3 3,-8 3,-16 0,-9 -1,-17 -4,-23 -2,-6 -6,-11 -10,-15 -4,-4 -11,-11 -21,-19l-29 -25c-22,-19 -33,-39 -33,-62 0,-25 6,-43 19,-56 13,-13 33,-19 58,-19 30,0 51,7 65,20 13,14 19,35 19,65l-68 0 0 -20c0,-4 -1,-7 -4,-9 -2,-2 -6,-3 -10,-3 -5,0 -9,1 -12,3 -2,3 -4,6 -4,10 0,10 7,19 19,29l39 32c9,8 17,15 23,22 5,7 10,15 14,24 4,9 5,20 5,33 0,28 -6,50 -18,64 -12,15 -32,22 -59,22zm99 -3l0 -287 134 0 0 56 -65 0 0 56 62 0 0 54 -62 0 0 66 69 0 0 55 -138 0zm161 -287l102 0c17,0 29,4 38,10 9,6 15,15 18,27 3,11 5,26 5,44 0,16 -3,29 -8,38 -4,9 -13,15 -25,19 10,1 17,6 22,13 4,7 7,16 7,28l-1 108 -65 0 0 -112c0,-8 -2,-13 -6,-15 -4,-3 -10,-4 -20,-4l0 131 -67 0 0 -287zm84 107c9,0 14,-9 14,-26 0,-8 -1,-14 -2,-17 0,-4 -2,-7 -4,-8 -2,-2 -5,-2 -9,-2l-15 0 0 53 16 0zm132 180l-41 -287 63 0 25 195 21 -195 64 0 -41 287 -91 0zm148 0l0 -287 65 0 0 287 -65 0zm169 3c-24,0 -44,-7 -58,-20 -15,-13 -22,-31 -22,-54l0 -132c0,-29 6,-50 20,-65 13,-14 34,-21 62,-21 24,0 44,6 59,17 15,12 23,28 23,50l0 50 -67 0 0 -43c0,-8 -1,-14 -3,-17 -3,-3 -7,-4 -12,-4 -6,0 -10,1 -12,5 -3,3 -4,9 -4,16l0 143c0,8 2,14 4,17 3,3 7,5 12,5 10,0 15,-7 15,-22l0 -51 68 0 0 54c0,48 -29,72 -85,72zm107 -3l0 -287 133 0 0 56 -65 0 0 56 63 0 0 54 -63 0 0 66 70 0 0 55 -138 0zm239 3c-30,0 -52,-6 -66,-19 -13,-13 -20,-34 -20,-63l0 -28 66 0 0 36c0,14 5,21 16,21 6,0 10,-1 12,-4 3,-3 4,-8 4,-16 0,-9 -2,-17 -4,-23 -3,-6 -6,-11 -10,-15 -4,-4 -11,-11 -22,-19l-28 -25c-23,-19 -34,-39 -34,-62 0,-25 7,-43 20,-56 13,-13 32,-19 57,-19 30,0 52,7 65,20 13,14 20,35 20,65l-68 0 -1 -20c0,-4 -1,-7 -3,-9 -3,-2 -6,-3 -11,-3 -5,0 -9,1 -11,3 -3,3 -4,6 -4,10 0,10 6,19 19,29l38 32c10,8 17,15 23,22 6,7 11,15 14,24 4,9 6,20 6,33 0,28 -6,50 -18,64 -12,15 -32,22 -60,22zm191 -3l0 -287 67 0 0 239 69 0 0 48 -136 0zm160 0l0 -231 -40 0 0 -56 146 0 0 56 -40 0 0 231 -66 0zm125 -287l92 0c24,0 42,6 54,17 11,12 18,29 18,51l1 134c0,28 -6,50 -18,64 -11,14 -30,21 -57,21l-90 0 0 -287zm79 237c12,0 18,-6 18,-16l0 -148c0,-6 -1,-11 -2,-14 -1,-4 -3,-6 -6,-7 -3,-1 -8,-1 -15,-1l-7 0 0 186 12 0zm108 50l0 -48 68 0 0 48 -68 0z"/>
 </g>
</svg>
