<?xml version="1.0" encoding="UTF-8" standalone="yes"?>
<svg width="100%" height="100%" viewBox="0 0 733 733" version="1.2" xml:space="preserve" fill-rule="evenodd" stroke-linejoin="round" stroke-miterlimit="2" baseProfile="tiny-ps" xmlns="http://www.w3.org/2000/svg">
  <title>bimi-svg-tiny-12-ps</title>
  <g>
    <path d="M399.39,466.332L373.661,439.989L388.472,425.656L399.39,466.332ZM360.032,551.626L310.979,502.599L360.032,454.104L409.209,502.911L360.032,551.626ZM305.306,523.756L346.847,565.332L274.833,637.414L305.306,523.756ZM360.107,426.963L337.347,403.556C337.347,403.556 343.342,381.963 344.939,375.94C346.249,370.994 347.018,366.379 352.624,368.144C358.83,370.097 361.214,370.159 367.577,368.325C372.997,366.762 373.827,371.265 374.933,375.106C376.658,381.103 382.741,403.611 382.741,403.611L360.107,426.963ZM320.703,466.332L331.609,425.656L346.402,440.462L320.703,466.332ZM445.132,636.74L373.529,565.077L414.693,523.756L445.132,636.74ZM249.575,731.757L265.187,673.39L360.032,578.528L455.27,674.51L470.64,731.71L249.575,731.757ZM360.794,275.988C376.405,275.988 389.08,288.673 389.08,304.298C389.08,319.923 376.405,332.608 360.794,332.608C345.183,332.608 332.508,319.923 332.508,304.298C332.508,288.673 345.183,275.988 360.794,275.988Z" fill="#f60"/>
    <path d="M660.895,357.409L690.43,341.885L699.48,336.541C713.189,328.446 715.106,310.939 708.255,256.395C702.842,213.304 690.481,170.984 673.539,137.537C655.984,102.881 612.914,47.285 603.82,47.541C601.846,47.597 586.897,53.513 570.599,60.688L540.966,73.733L540.987,97.659C540.999,110.819 542.063,137.661 543.353,157.31C545.032,182.892 544.858,193.034 542.738,193.034C541.11,193.034 533.378,195.921 525.556,199.448C499.158,211.353 453.727,230.781 452.286,230.781C451.499,230.781 443.248,234.207 433.951,238.394C401.079,253.199 401.305,252.323 393.179,248.306C377.344,240.477 349.081,236.105 329.379,247.711C313.029,257.343 299.71,275.12 296.566,286.531L293.462,297.793L252.886,314.591C236.749,321.272 221.951,327.42 208.763,332.92C176.662,346.308 154.095,355.864 144.963,359.947C139.037,362.598 122.671,369.402 108.596,375.069C75.405,388.43 74.133,389.608 78.794,402.636C87.826,427.878 95.313,441.084 100.593,441.084C105.654,441.084 105.902,443.095 105.902,484.223C105.902,516.853 102.534,527.518 102.534,527.518L58.758,528.71L59.233,648.23C59.534,667.899 72.959,679.974 99.204,679.572L144.441,679.696C170.851,679.769 182.759,666.609 182.812,647.419C182.902,614.594 182.678,528.71 182.678,528.71L135.535,527.152L135.535,428.142L159.106,418.117C172.07,412.603 202.68,399.701 227.127,389.447C251.574,379.192 277.974,367.809 285.793,364.152C301.937,356.6 306.446,355.886 304.408,361.202C303.165,364.443 228.185,631.502 226.928,635.209C225.671,638.917 199.972,732.272 199.972,732.272L60.692,732.249C28.008,732.249 0.154,696.231 0.154,663.519C0.154,633.357 0.082,490.126 0.023,353.249L0,298.416C0.624,297.751 21.076,275.976 52.611,243.2C67.879,227.331 85.744,208.884 105.215,189.006C118.563,175.379 132.665,161.08 147.201,146.479L293.009,0.015L352.935,0.013C546.781,0.003 656.322,-0.024 662.457,0.051C694.784,0.441 732.484,41.257 732.07,75.513C731.72,104.606 732.231,254.043 732.145,353.249C732.218,447.8 732.409,634.507 732.793,666.288C732.045,700.377 684.253,732.583 652.241,731.879C639.642,731.602 519.662,732.283 519.662,732.283C519.662,732.283 421.931,386.255 414.841,361.09C411.205,348.182 410.415,346.634 415.755,339.365C419.791,333.871 423.684,324.121 424.646,318.098C425.733,311.298 426.685,307.193 430.217,304.88C433.345,302.831 461.362,290.695 492.476,277.911C523.591,265.127 552.529,252.952 556.783,250.856C561.038,248.76 565.665,247.754 567.067,248.621C568.468,249.487 576.059,258.871 583.935,269.473C591.812,280.075 600.519,291.36 603.285,294.55C606.051,297.741 617.406,311.929 628.518,326.08C639.63,340.23 651.461,353.068 654.809,354.609L660.895,357.409ZM299.397,71.706L74.739,300.999L154.748,300.933C256.913,300.848 300.423,250.467 300.355,166.953C300.341,150.447 299.906,146.043 299.626,104.855C299.494,85.42 299.397,71.706 299.397,71.706Z" fill="#f60"/>
  </g>
</svg>