<?xml version="1.0" encoding="UTF-8" standalone="no"?>
<!DOCTYPE svg PUBLIC "-//W3C//DTD SVG 1.1//EN" "http://www.w3.org/Graphics/SVG/1.1/DTD/svg11.dtd">
<svg width="100%" height="100%" viewBox="0 0 2127 771" version="1.1" xmlns="http://www.w3.org/2000/svg" xmlns:xlink="http://www.w3.org/1999/xlink" xml:space="preserve" xmlns:serif="http://www.serif.com/" style="fill-rule:evenodd;clip-rule:evenodd;stroke-linejoin:round;stroke-miterlimit:2;">
    <path d="M520.645,490.731L493.547,463.01L509.145,447.927L520.645,490.731ZM479.192,580.488L427.529,528.896L479.192,477.863L530.986,529.225L479.192,580.488ZM421.554,551.16L465.305,594.911L389.459,670.765L421.554,551.16ZM479.272,449.303L455.3,424.671C455.3,424.671 461.614,401.948 463.295,395.61C464.676,390.405 465.485,385.549 471.39,387.406C477.926,389.461 480.437,389.527 487.139,387.596C492.848,385.952 493.721,390.69 494.886,394.733C496.703,401.043 503.11,424.728 503.11,424.728L479.272,449.303ZM437.77,490.731L449.256,447.927L464.837,463.508L437.77,490.731ZM568.821,670.056L493.408,594.643L536.763,551.16L568.821,670.056ZM362.857,770.044L379.299,708.624L479.192,608.798L579.498,709.802L595.686,769.995L362.857,770.044ZM479.995,290.429C496.437,290.429 509.786,303.778 509.786,320.22C509.786,336.662 496.437,350.011 479.995,350.011C463.552,350.011 450.203,336.662 450.203,320.22C450.203,303.778 463.552,290.429 479.995,290.429Z" style="fill:rgb(0,51,102);"/>
    <path d="M892.76,136.406C892.763,142.379 893.001,658.474 893.001,658.474L828.642,658.514L827.908,509.144L827.174,359.774L836.705,354.15C851.144,345.631 853.162,327.208 845.947,269.81C840.246,224.464 827.227,179.93 809.383,144.733C790.894,108.264 745.532,49.759 735.954,50.029C733.876,50.088 718.131,56.313 700.965,63.863L669.756,77.591L669.777,102.769C669.79,116.617 670.91,144.864 672.269,165.541C674.038,192.462 673.854,203.134 671.622,203.134C669.907,203.134 661.764,206.172 653.525,209.884C625.723,222.412 577.873,242.856 576.356,242.856C575.527,242.856 566.837,246.461 557.045,250.868C522.424,266.447 522.661,265.525 514.104,261.298C497.426,253.059 467.659,248.458 446.908,260.672C429.688,270.808 415.66,289.515 412.348,301.523L409.079,313.374L366.344,331.052C349.349,338.082 333.763,344.551 319.872,350.339C286.063,364.428 262.296,374.483 252.678,378.781C246.436,381.57 229.2,388.73 214.375,394.693C179.418,408.754 178.078,409.993 182.988,423.703C192.5,450.266 200.386,464.162 205.946,464.162C211.277,464.162 211.538,466.279 211.538,509.558C211.538,543.896 207.991,555.119 207.991,555.119L161.886,556.373L161.86,658.514L110.815,658.514L110.815,371.691C91.092,371.695 72.015,371.701 55.408,371.707C55.401,524.644 55.386,682.147 55.386,682.147C55.702,702.845 69.842,715.552 97.483,715.129L276.697,715.26L279.877,706.748C292.172,673.835 294.27,657.858 293.288,604.607L292.399,556.373L242.747,554.734L242.747,450.543L267.573,439.993C281.228,434.191 313.466,420.614 339.214,409.823C364.962,399.032 392.767,387.054 401.002,383.205C418.005,375.258 422.754,374.506 420.608,380.101C419.299,383.511 340.329,664.544 339.005,668.445C337.681,672.346 310.614,770.586 310.614,770.586L63.922,770.562C29.498,770.562 0.162,732.66 0.162,698.236C0.162,666.496 0.086,515.771 0.024,371.732L0,314.03C0.657,313.33 22.197,290.415 55.411,255.925C71.491,239.226 90.307,219.813 110.815,198.895C124.873,184.556 139.725,169.509 155.035,154.143L308.603,0.016L371.718,0.013C575.879,0.003 921.251,-0.025 927.712,0.053C961.759,0.464 1001.465,43.416 1001.03,79.464C1000.66,110.079 1001.199,267.335 1001.108,371.732C1001.185,471.23 1001.387,667.706 1001.791,701.15C1001.003,737.022 950.668,770.913 916.952,770.173C903.682,769.881 647.317,770.598 647.317,770.598C647.317,770.598 544.385,406.465 536.918,379.983C533.088,366.4 532.256,364.77 537.881,357.121C542.132,351.34 546.232,341.08 547.245,334.742C548.389,327.586 549.392,323.266 553.112,320.832C556.407,318.676 585.914,305.905 618.685,292.452C651.455,278.999 681.933,266.187 686.414,263.981C690.895,261.775 695.769,260.717 697.245,261.629C698.721,262.541 706.715,272.416 715.011,283.572C723.307,294.729 732.478,306.604 735.391,309.962C738.304,313.319 750.263,328.25 761.966,343.141C773.67,358.032 786.131,371.542 789.656,373.163L796.067,376.11L794.595,658.514L659.855,658.696L675.404,712.115C675.404,712.115 912.45,710.94 920.308,709.726C933.815,707.639 945.86,696.437 946.017,684.497C946.134,675.627 945.256,92.961 945.256,85.728C945.256,68.157 937.346,57.479 919.775,57.454C915.772,57.449 810.198,57.299 810.198,57.299C822.727,73.033 833.567,90.144 841.649,109.505C841.649,109.505 863.555,109.554 867.051,109.552C880.715,109.546 892.755,124.464 892.76,136.406ZM315.33,75.458L76.898,316.755L230.794,316.663C280.2,316.634 316.365,284.633 316.339,241.437C316.329,224.069 315.867,153.684 315.572,110.341C315.433,89.889 315.33,75.458 315.33,75.458ZM371.718,56.202L371.718,110.181L620.103,109.474L620.103,55.513L371.718,56.202Z" style="fill:rgb(0,51,102);"/>
    <path d="M1351.103,195.838L1351.103,263.157C1351.103,293.141 1347.428,319.498 1340.077,342.228C1332.726,364.958 1322.232,383.964 1308.594,399.246C1294.956,414.528 1278.706,425.99 1259.845,433.631C1240.984,441.272 1220.141,445.093 1197.314,445.093C1174.294,445.093 1153.305,441.272 1134.347,433.631C1115.39,425.99 1099.043,414.528 1085.309,399.246C1071.574,383.964 1060.983,364.958 1053.535,342.228C1046.088,319.498 1042.364,293.141 1042.364,263.157L1042.364,195.838C1042.364,165.467 1046.088,138.723 1053.535,115.606C1060.983,92.489 1071.526,73.241 1085.164,57.862C1098.802,42.483 1115.051,30.828 1133.912,22.897C1152.773,14.966 1173.714,11 1196.734,11C1219.754,11 1240.694,14.966 1259.555,22.897C1278.416,30.828 1294.666,42.483 1308.304,57.862C1321.941,73.241 1332.484,92.489 1339.932,115.606C1347.38,138.723 1351.103,165.467 1351.103,195.838ZM1258.54,263.157L1258.54,195.257C1258.54,175.719 1257.234,159.083 1254.622,145.348C1252.011,131.614 1248.093,120.394 1242.87,111.689C1237.647,102.984 1231.215,96.6 1223.574,92.537C1215.933,88.475 1206.986,86.444 1196.734,86.444C1186.288,86.444 1177.196,88.475 1169.458,92.537C1161.72,96.6 1155.288,102.984 1150.161,111.689C1145.035,120.394 1141.263,131.614 1138.845,145.348C1136.427,159.083 1135.218,175.719 1135.218,195.257L1135.218,263.157C1135.218,282.114 1136.475,298.364 1138.99,311.905C1141.505,325.446 1145.374,336.473 1150.597,344.984C1155.82,353.496 1162.3,359.783 1170.038,363.845C1177.776,367.908 1186.868,369.939 1197.314,369.939C1207.373,369.939 1216.223,367.908 1223.864,363.845C1231.506,359.783 1237.889,353.496 1243.016,344.984C1248.142,336.473 1252.011,325.446 1254.622,311.905C1257.234,298.364 1258.54,282.114 1258.54,263.157Z" style="fill:rgb(0,51,102);fill-rule:nonzero;"/>
    <path d="M1585.85,327.574C1585.85,320.417 1585.173,313.985 1583.819,308.278C1582.465,302.571 1579.853,297.252 1575.984,292.319C1572.115,287.386 1566.312,282.405 1558.574,277.375C1550.836,272.345 1540.68,267.122 1528.106,261.706C1512.631,255.322 1497.59,248.31 1482.985,240.669C1468.38,233.028 1455.274,224.129 1443.667,213.973C1432.061,203.817 1422.775,191.824 1415.811,177.992C1408.847,164.161 1405.365,147.96 1405.365,129.389C1405.365,111.398 1408.75,95.101 1415.521,80.495C1422.292,65.89 1431.77,53.413 1443.958,43.064C1456.145,32.714 1470.556,24.783 1487.193,19.27C1503.829,13.757 1522.11,11 1542.035,11C1568.924,11 1592.427,16.465 1612.546,27.395C1632.664,38.324 1648.333,53.606 1659.553,73.241C1670.773,92.876 1676.383,115.751 1676.383,141.866L1584.689,141.866C1584.689,130.453 1583.142,120.442 1580.047,111.834C1576.952,103.225 1572.164,96.455 1565.683,91.522C1559.203,86.589 1550.74,84.123 1540.294,84.123C1530.621,84.123 1522.593,86.154 1516.21,90.216C1509.826,94.278 1505.086,99.792 1501.991,106.756C1498.896,113.72 1497.349,121.458 1497.349,129.969C1497.349,136.74 1498.945,142.737 1502.136,147.96C1505.328,153.183 1509.681,158.019 1515.194,162.468C1520.707,166.917 1527.284,171.173 1534.925,175.236C1542.567,179.298 1550.836,183.167 1559.735,186.842C1578.693,194.387 1595.571,202.608 1610.369,211.507C1625.168,220.405 1637.549,230.416 1647.511,241.539C1657.473,252.662 1665.018,265.236 1670.144,279.261C1675.27,293.286 1677.834,309.197 1677.834,326.994C1677.834,345.178 1674.738,361.572 1668.548,376.178C1662.358,390.783 1653.508,403.212 1641.998,413.464C1630.488,423.717 1616.511,431.551 1600.068,436.968C1583.625,442.384 1565.248,445.093 1544.936,445.093C1525.785,445.093 1507.311,442.336 1489.514,436.823C1471.717,431.31 1455.903,422.846 1442.071,411.433C1428.24,400.02 1417.262,385.415 1409.137,367.618C1401.013,349.821 1396.95,328.638 1396.95,304.071L1489.224,304.071C1489.224,316.645 1490.336,327.332 1492.561,336.134C1494.785,344.936 1498.267,351.948 1503.007,357.171C1507.746,362.395 1513.646,366.215 1520.707,368.633C1527.768,371.051 1536.231,372.26 1546.097,372.26C1556.156,372.26 1564.087,370.229 1569.891,366.167C1575.694,362.104 1579.805,356.736 1582.223,350.062C1584.641,343.388 1585.85,335.892 1585.85,327.574Z" style="fill:rgb(0,51,102);fill-rule:nonzero;"/>
    <path d="M1771.268,16.803L1848.743,16.803L1925.348,307.553L2001.662,16.803L2074.495,16.803L1957.556,439.289L1892.849,439.289L1771.268,16.803ZM1731.515,16.803L1808.99,16.803L1822.048,317.128L1822.048,439.289L1731.515,439.289L1731.515,16.803ZM2041.415,16.803L2118.89,16.803L2118.89,439.289L2028.358,439.289L2028.358,317.128L2041.415,16.803Z" style="fill:rgb(0,51,102);fill-rule:nonzero;"/>
    <path d="M1135.5,756.212L1093.513,756.212L1093.852,729.632L1135.5,729.632C1150.286,729.632 1162.306,726.782 1171.561,721.082C1180.816,715.382 1187.645,706.917 1192.047,695.687C1196.448,684.457 1198.649,670.546 1198.649,653.954L1198.649,611.798C1198.649,598.705 1197.408,587.419 1194.925,577.938C1192.442,568.457 1188.717,560.669 1183.751,554.574C1178.785,548.479 1172.52,543.936 1164.958,540.945C1157.396,537.954 1148.536,536.459 1138.378,536.459L1092.667,536.459L1092.667,509.709L1138.378,509.709C1152.261,509.709 1164.789,511.882 1175.963,516.227C1187.137,520.573 1196.731,527.063 1204.744,535.697C1212.758,544.331 1218.881,555.026 1223.113,567.78C1227.346,580.534 1229.462,595.319 1229.462,612.137L1229.462,653.954C1229.462,670.771 1227.346,685.557 1223.113,698.311C1218.881,711.065 1212.701,721.731 1204.575,730.309C1196.448,738.887 1186.601,745.349 1175.032,749.694C1163.463,754.04 1150.286,756.212 1135.5,756.212ZM1110.782,509.709L1110.782,756.212L1079.63,756.212L1079.63,509.709L1110.782,509.709Z" style="fill:rgb(0,51,102);fill-rule:nonzero;"/>
    <path d="M1405.307,729.632L1405.307,756.212L1298.308,756.212L1298.308,729.632L1405.307,729.632ZM1303.895,509.709L1303.895,756.212L1272.744,756.212L1272.744,509.709L1303.895,509.709ZM1390.916,615.692L1390.916,642.272L1298.308,642.272L1298.308,615.692L1390.916,615.692ZM1403.614,509.709L1403.614,536.459L1298.308,536.459L1298.308,509.709L1403.614,509.709Z" style="fill:rgb(0,51,102);fill-rule:nonzero;"/>
    <path d="M1563.713,677.826L1594.865,677.826C1594.075,694.756 1590.661,709.344 1584.622,721.59C1578.584,733.836 1569.836,743.232 1558.38,749.779C1546.924,756.325 1532.618,759.598 1515.462,759.598C1503.16,759.598 1492.042,757.172 1482.11,752.318C1472.178,747.465 1463.684,740.495 1456.63,731.41C1449.576,722.324 1444.187,711.404 1440.462,698.65C1436.737,685.896 1434.875,671.561 1434.875,655.647L1434.875,610.105C1434.875,594.304 1436.766,580.026 1440.547,567.272C1444.328,554.518 1449.802,543.598 1456.969,534.512C1464.136,525.426 1472.883,518.457 1483.211,513.603C1493.538,508.75 1505.248,506.323 1518.341,506.323C1534.368,506.323 1547.94,509.512 1559.058,515.889C1570.175,522.266 1578.753,531.577 1584.791,543.824C1590.83,556.07 1594.188,571.053 1594.865,588.773L1563.713,588.773C1562.923,575.793 1560.892,565.212 1557.619,557.029C1554.345,548.846 1549.52,542.808 1543.143,538.914C1536.766,535.02 1528.499,533.073 1518.341,533.073C1509.311,533.073 1501.495,534.879 1494.892,538.491C1488.29,542.102 1482.872,547.266 1478.639,553.982C1474.407,560.697 1471.247,568.767 1469.159,578.192C1467.07,587.616 1466.026,598.141 1466.026,609.766L1466.026,655.647C1466.026,666.482 1466.901,676.584 1468.651,685.952C1470.4,695.32 1473.222,703.531 1477.116,710.585C1481.01,717.64 1486.117,723.142 1492.437,727.092C1498.758,731.043 1506.433,733.018 1515.462,733.018C1526.862,733.018 1535.892,731.156 1542.551,727.431C1549.21,723.706 1554.148,717.781 1557.365,709.654C1560.581,701.528 1562.698,690.918 1563.713,677.826Z" style="fill:rgb(0,51,102);fill-rule:nonzero;"/>
    <path d="M1711.962,531.549L1644.58,756.212L1612.751,756.212L1692.154,509.709L1712.131,509.709L1711.962,531.549ZM1766.477,756.212L1699.095,531.549L1698.756,509.709L1718.903,509.709L1798.306,756.212L1766.477,756.212ZM1766.477,664.959L1766.477,691.708L1647.627,691.708L1647.627,664.959L1766.477,664.959Z" style="fill:rgb(0,51,102);fill-rule:nonzero;"/>
    <path d="M1955.019,729.632L1955.019,756.212L1852.761,756.212L1852.761,729.632L1955.019,729.632ZM1858.348,509.709L1858.348,756.212L1827.197,756.212L1827.197,509.709L1858.348,509.709Z" style="fill:rgb(0,51,102);fill-rule:nonzero;"/>
    <path d="M2095.141,693.909C2095.141,688.153 2094.464,683.046 2093.11,678.588C2091.755,674.129 2089.385,670.094 2085.999,666.482C2082.613,662.871 2077.872,659.428 2071.778,656.155C2065.683,652.882 2057.951,649.552 2048.583,646.166C2038.425,642.555 2029.226,638.519 2020.987,634.061C2012.748,629.603 2005.722,624.496 1999.909,618.739C1994.096,612.983 1989.61,606.38 1986.45,598.931C1983.289,591.482 1981.709,582.96 1981.709,573.367C1981.709,563.773 1983.374,554.913 1986.704,546.786C1990.033,538.66 1994.774,531.577 2000.925,525.539C2007.076,519.501 2014.497,514.788 2023.188,511.402C2031.879,508.016 2041.585,506.323 2052.308,506.323C2068.335,506.323 2081.851,509.85 2092.856,516.905C2103.86,523.959 2112.184,533.158 2117.828,544.501C2123.471,555.844 2126.293,567.949 2126.293,580.816L2095.141,580.816C2095.141,571.561 2093.646,563.35 2090.655,556.183C2087.664,549.015 2083.036,543.372 2076.772,539.252C2070.508,535.133 2062.353,533.073 2052.308,533.073C2043.279,533.073 2035.857,534.822 2030.045,538.321C2024.232,541.82 2019.943,546.561 2017.178,552.543C2014.413,558.525 2013.03,565.353 2013.03,573.028C2013.03,578.22 2013.933,582.932 2015.739,587.165C2017.545,591.397 2020.338,595.319 2024.119,598.931C2027.9,602.543 2032.641,605.873 2038.341,608.92C2044.04,611.967 2050.784,614.902 2058.572,617.724C2070.649,621.674 2080.976,626.076 2089.554,630.929C2098.132,635.782 2105.13,641.228 2110.548,647.267C2115.965,653.305 2119.944,660.134 2122.483,667.752C2125.023,675.371 2126.293,683.977 2126.293,693.571C2126.293,703.616 2124.628,712.702 2121.298,720.828C2117.969,728.955 2113.144,735.896 2106.823,741.652C2100.502,747.409 2092.884,751.839 2083.967,754.942C2075.051,758.046 2065.006,759.598 2053.832,759.598C2044.125,759.598 2034.616,758.018 2025.304,754.858C2015.993,751.698 2007.556,746.957 1999.994,740.636C1992.432,734.316 1986.393,726.5 1981.879,717.188C1977.364,707.877 1975.106,697.07 1975.106,684.767L2006.258,684.767C2006.258,693.232 2007.499,700.484 2009.983,706.522C2012.466,712.561 2015.908,717.555 2020.31,721.505C2024.712,725.456 2029.763,728.362 2035.462,730.224C2041.162,732.087 2047.285,733.018 2053.832,733.018C2062.861,733.018 2070.451,731.438 2076.603,728.277C2082.754,725.117 2087.382,720.602 2090.485,714.733C2093.589,708.864 2095.141,701.923 2095.141,693.909Z" style="fill:rgb(0,51,102);fill-rule:nonzero;"/>
</svg>
