<?xml version="1.0" encoding="UTF-8" standalone="no"?>
<!DOCTYPE svg PUBLIC "-//W3C//DTD SVG 1.1//EN" "http://www.w3.org/Graphics/SVG/1.1/DTD/svg11.dtd">
<svg width="100%" height="100%" viewBox="0 0 1056 772" version="1.1" xmlns="http://www.w3.org/2000/svg" xmlns:xlink="http://www.w3.org/1999/xlink" xml:space="preserve" xmlns:serif="http://www.serif.com/" style="fill-rule:evenodd;clip-rule:evenodd;stroke-linejoin:round;stroke-miterlimit:2;">
    <style>
        :root { fill: #003366; }
        @media (prefers-color-scheme: dark) {
            :root { fill: #FF6600; }
        }
        path { fill: inherit !important; }
    </style>
    <g transform="matrix(1,0,0,1,-198.358022,-72.813698)">
        <g transform="matrix(1,0,0,1,22.026686,13.376452)">
            <g transform="matrix(1,0,0,-1,1044.009909,555.402879)">
                <path d="M-301.361,4.658L-328.458,32.379L-312.86,47.462L-301.361,4.658ZM-342.813,-85.099L-394.477,-33.507L-342.813,17.526L-291.019,-33.836L-342.813,-85.099ZM-400.451,-55.771L-356.7,-99.522L-432.547,-175.375L-400.451,-55.771ZM-342.734,46.086L-366.705,70.718C-366.705,70.718 -360.391,93.441 -358.71,99.78C-357.329,104.984 -356.52,109.84 -350.615,107.984C-344.08,105.928 -341.568,105.863 -334.866,107.793C-329.158,109.437 -328.284,104.699 -327.12,100.657C-325.302,94.346 -318.896,70.661 -318.896,70.661L-342.734,46.086ZM-384.235,4.658L-372.749,47.462L-357.168,31.881L-384.235,4.658ZM-253.185,-174.667L-328.598,-99.254L-285.243,-55.771L-253.185,-174.667ZM-459.148,-274.655L-442.706,-213.234L-342.813,-113.409L-242.507,-214.413L-226.319,-274.606L-459.148,-274.655ZM-342.011,204.961C-325.568,204.961 -312.219,191.612 -312.219,175.17C-312.219,158.727 -325.568,145.378 -342.011,145.378C-358.453,145.378 -371.802,158.727 -371.802,175.17C-371.802,191.612 -358.453,204.961 -342.011,204.961Z" />
            </g>
            <path d="M1168.376,59.445L1231.427,59.437L1231.435,59.445L1168.376,59.445Z" />
            <g transform="matrix(1,0,0,1,-0.035181,0.528584)">
                <path d="M1114.8,195.891C1114.803,201.864 1115.041,717.959 1115.041,717.959L1050.682,717.999L1049.948,568.629L1049.213,419.259L1058.745,413.635C1073.183,405.116 1075.202,386.693 1067.986,329.295C1062.286,283.949 1049.267,239.415 1031.423,204.218C1012.934,167.749 967.571,109.244 957.993,109.514C955.915,109.573 940.171,115.798 923.005,123.348L891.795,137.076L891.817,162.254C891.829,176.102 892.95,204.349 894.309,225.026C896.078,251.947 895.894,262.619 893.662,262.619C891.947,262.619 883.803,265.657 875.565,269.369C847.762,281.897 799.913,302.341 798.395,302.341C797.567,302.341 788.877,305.946 779.085,310.353C744.464,325.932 744.701,325.01 736.143,320.783C719.466,312.544 689.699,307.943 668.948,320.157C651.728,330.293 637.7,349 634.388,361.008L631.119,372.859L588.384,390.537C571.388,397.567 555.803,404.036 541.912,409.824C508.103,423.913 484.335,433.968 474.718,438.266C468.476,441.055 451.239,448.215 436.415,454.178C401.458,468.239 400.118,469.478 405.028,483.188C414.54,509.75 422.425,523.647 427.986,523.647C433.317,523.647 433.577,525.764 433.577,569.043C433.577,603.381 430.031,614.604 430.031,614.604L383.925,615.858L383.9,717.999L332.855,717.999L332.855,431.176C313.132,431.18 294.055,431.186 277.448,431.192C277.441,584.129 277.425,741.632 277.425,741.632C277.742,762.33 291.881,775.037 319.523,774.614L498.737,774.745L501.917,766.233C514.212,733.32 516.31,717.343 515.328,664.092L514.439,615.858L464.787,614.219L464.787,510.028L489.613,499.478C503.268,493.676 535.506,480.099 561.254,469.308C587.002,458.517 614.807,446.539 623.042,442.69C640.045,434.743 644.794,433.991 642.647,439.586C641.339,442.996 562.369,724.029 561.045,727.93C559.721,731.831 532.654,830.071 532.654,830.071L285.962,830.047C251.538,830.047 222.202,792.145 222.202,757.721C222.202,725.981 222.126,575.256 222.064,431.217L222.04,373.515C222.697,372.815 244.237,349.9 277.45,315.41C293.531,298.711 312.347,279.298 332.855,258.38C346.912,244.041 361.764,228.994 377.074,213.628L530.642,59.501L593.757,59.498C797.919,59.488 1143.29,59.46 1149.752,59.538C1183.799,59.949 1223.505,102.901 1223.07,138.949C1223.7,169.564 1223.238,326.82 1223.148,431.217C1223.225,530.715 1223.427,727.191 1223.83,760.635C1223.042,796.507 1172.708,830.398 1138.992,829.658C1125.722,829.366 869.357,830.083 869.357,830.083C869.357,830.083 766.425,465.949 758.958,439.468C755.128,425.885 754.296,424.255 759.921,416.606C764.172,410.825 768.272,400.565 769.285,394.227C770.429,387.071 771.432,382.751 775.152,380.317C778.446,378.161 807.954,365.39 840.725,351.937C873.495,338.484 903.973,325.672 908.454,323.466C912.935,321.26 917.809,320.202 919.285,321.114C920.76,322.026 928.755,331.901 937.051,343.057C945.347,354.214 954.517,366.089 957.43,369.447C960.343,372.804 972.302,387.735 984.006,402.626C995.71,417.517 1008.17,431.027 1011.696,432.648L1018.106,435.595L1016.635,717.999L881.895,718.181L897.444,771.6C897.444,771.6 1134.49,770.425 1142.348,769.211C1155.855,767.124 1167.9,755.922 1168.057,743.982C1168.174,735.112 1167.296,152.446 1167.296,145.213C1167.296,127.642 1159.386,116.964 1141.814,116.939C1137.812,116.934 1032.238,116.784 1032.238,116.784C1044.767,132.518 1055.607,149.629 1063.689,168.99C1063.689,168.99 1085.594,169.039 1089.091,169.037C1102.754,169.031 1114.794,183.949 1114.8,195.891ZM537.37,134.943L298.938,376.24L452.834,376.148C502.24,376.118 538.405,344.118 538.379,300.922C538.368,283.554 537.907,213.169 537.612,169.826C537.472,149.374 537.37,134.943 537.37,134.943ZM593.757,115.687L593.757,169.666L842.143,168.959L842.143,114.998L593.757,115.687Z" />
            </g>
            <g transform="matrix(-1,0,0,1,1670.825124,-0)">
                <path d="M1494.439,387.934C1494.45,387.944 1494.455,387.95 1494.455,387.95C1494.455,387.95 1494.467,410.875 1494.494,445.636C1494.494,445.636 1494.467,445.636 1494.415,445.636C1494.424,426.176 1494.432,406.839 1494.439,387.934Z" />
            </g>
            <g transform="matrix(-1,0,0,1,1670.825124,-0)">
                <path d="M1122.722,73.917L1122.722,73.864L1185.781,73.864L1185.837,73.92C1165.515,73.919 1144.402,73.919 1122.722,73.917Z" />
            </g>
        </g>
    </g>
</svg>
